<?xml version="1.0" encoding="utf-8"?>
<!-- Generator: Adobe Illustrator 16.0.0, SVG Export Plug-In . SVG Version: 6.00 Build 0)  -->
<!DOCTYPE svg PUBLIC "-//W3C//DTD SVG 1.1//EN" "http://www.w3.org/Graphics/SVG/1.1/DTD/svg11.dtd">
<svg version="1.1" id="Layer_1" xmlns="http://www.w3.org/2000/svg" xmlns:xlink="http://www.w3.org/1999/xlink" x="0px" y="0px"
	 width="100px" height="38.5px" viewBox="0 0 100 38.5" enable-background="new 0 0 100 38.5" xml:space="preserve">
<g>
	<g id="XMLID_2_">
		<g>
			<path fill="#77BEA7" d="M97.91,36.79c-0.471,0.38-1.01,0.7-1.61,0.7c-0.81,0-1.42-0.51-1.42-1.381c0-1.06,0.91-1.59,2.979-1.819
				c0-0.62-0.209-1.22-1-1.22c-0.569,0-1.069,0.26-1.439,0.52l-0.33-0.57c0.45-0.289,1.12-0.629,1.91-0.629
				c1.18,0,1.68,0.789,1.68,2v2.979H98l-0.07-0.58H97.91z M96.54,36.83c0.46,0,0.851-0.23,1.319-0.65v-1.35
				c-1.619,0.2-2.17,0.6-2.17,1.22C95.689,36.6,96.061,36.83,96.54,36.83z"/>
			<path fill="#77BEA7" d="M93.63,36.82c0.17,0,0.39-0.07,0.55-0.131l0.16,0.621c-0.27,0.09-0.6,0.18-0.9,0.18
				c-1.029,0-1.379-0.66-1.379-1.62v-2.69H91.34v-0.619l0.76-0.051L92.2,31.15h0.68v1.359h1.31v0.67h-1.31v2.7
				C92.88,36.48,93.08,36.82,93.63,36.82z"/>
			<path fill="#77BEA7" d="M88.93,33.04c-0.68,0-1.289,0.56-1.39,1.54h2.59C90.13,33.59,89.689,33.04,88.93,33.04z M87.55,35.12
				c0.06,1.05,0.69,1.71,1.61,1.71c0.46,0,0.85-0.15,1.21-0.38l0.29,0.54c-0.42,0.27-0.939,0.5-1.6,0.5
				c-1.291,0-2.32-0.95-2.32-2.54c0-1.591,1.07-2.56,2.18-2.56c1.23,0,1.93,0.889,1.93,2.279c0,0.17-0.01,0.33-0.029,0.45H87.55z"/>
			<path fill="#77BEA7" d="M83.55,36.8c0.8,0,1.39-0.729,1.39-1.93c0-1.07-0.359-1.79-1.27-1.79c-0.42,0-0.84,0.23-1.3,0.66v2.55
				C82.79,36.66,83.24,36.8,83.55,36.8z M85.79,34.859c0,1.66-0.99,2.631-2.101,2.631c-0.439,0-0.949-0.221-1.379-0.6h-0.031
				L82.21,37.37h-0.66v-7.12h0.82v1.939L82.35,33.07c0.44-0.391,0.98-0.68,1.51-0.68C85.12,32.391,85.79,33.359,85.79,34.859z"/>
		</g>
	</g>
</g>
<g>
	<g id="XMLID_1_">
		<g>
			<path fill="#FFFFFF" d="M96.93,16.94c-0.58-1.34-1.75-2.03-3.41-2.03c-1.34,0-2.319,0.65-2.39,1.59
				c-0.06,0.95,0.729,1.34,2.399,2.05l0.141,0.06c1.67,0.69,3.95,1.64,3.76,4.46c-0.22,3.039-2.65,4.93-6.34,4.93
				c-2.119,0-3.949-0.641-5.02-1.76c-0.61-0.7-0.891-1.391-0.85-2.07c0.079-1.16,1.27-1.76,1.76-1.76h0.17
				c0.09,0,0.209,0.08,0.26,0.16c0.05,0.09,0.08,0.16,0.08,0.16c0.619,1.449,2.02,2.279,3.85,2.279c2.41,0,2.5-1.29,2.53-1.71
				c0.06-0.87-0.83-1.28-2.39-1.93c-1.601-0.67-3.98-1.67-3.78-4.63c0.2-2.83,2.71-4.81,6.09-4.81c2.06,0,3.729,0.57,4.7,1.61
				c0.52,0.56,0.789,1.24,0.74,1.91c-0.08,1.17-1.201,1.78-1.771,1.78C97.12,17.23,96.98,17.02,96.93,16.94z"/>
			<path fill="#FFFFFF" d="M85.9,12.6c0.17,0.23,0.34,0.64,0.14,1.3l-2.25,8.02C82.66,25.9,80.141,28,76.51,28
				c-2.23,0-3.9-0.66-4.82-1.91c-0.969-1.31-1.109-3.16-0.439-5.52l1.96-6.97c0.12-0.39,0.47-1.49,1.8-1.49h0.32
				c0.609,0,0.939,0.26,1.1,0.48c0.17,0.23,0.33,0.65,0.141,1.33l-1.99,7.061c-0.391,1.41-0.35,2.439,0.12,3.06
				c0.399,0.54,1.149,0.81,2.229,0.81c1.11,0,2.7-0.35,3.58-3.449l2.221-7.811c0.1-0.37,0.42-1.49,1.779-1.49h0.29
				C85.279,12.1,85.67,12.28,85.9,12.6z"/>
			<path fill="#FFFFFF" d="M63.05,11.9c4.171,0,6.89,2.83,6.61,6.87c-0.36,5.08-4.51,9.2-9.25,9.2c-4.24,0-6.9-2.75-6.61-6.84
				C54.16,16.04,58.311,11.9,63.05,11.9z M66.17,18.92c0.17-2.35-1.21-3.87-3.52-3.87c-2.4,0-5.131,2.38-5.381,5.931
				c-0.17,2.35,1.221,3.869,3.541,3.869C63.2,24.85,65.92,22.47,66.17,18.92z"/>
			<path fill="#77BEA7" d="M52.04,4c1.54,0,2.61,1.25,2.39,2.78c-0.209,1.53-1.63,2.78-3.17,2.78c-1.53,0-2.6-1.25-2.38-2.78
				C49.09,5.25,50.51,4,52.04,4z"/>
			<path fill="#FFFFFF" d="M50.44,26.83c-0.07,0.21-0.15,0.37-0.19,0.45l-0.08,0.03c-1.02,0.34-1.95,0.52-2.7,0.52
				c-0.64,0-1.51-0.15-1.96-0.891c-0.37-0.58-0.61-1.739,0.31-3.959l2.42-5.9c0.07-0.16,0.12-0.3,0.15-0.44
				c0.09-0.31,0.05-0.64-0.11-0.87c-0.11-0.17-0.29-0.28-0.51-0.3c-0.04,0-0.09,0-0.15,0c-0.33,0-0.75,0.05-1.27,0.16l-0.09,0.02
				l0.73-2.37c0.06-0.19,0.13-0.34,0.18-0.44l0.09-0.02c1.1-0.33,1.98-0.49,2.71-0.49c0.639,0,1.51,0.15,1.969,0.88
				c0.531,0.84,0.42,2.18-0.31,3.97l-2.46,5.91c-0.06,0.15-0.11,0.301-0.15,0.44c-0.07,0.3-0.03,0.63,0.13,0.85
				c0.11,0.17,0.28,0.28,0.47,0.3c0.06,0.01,0.12,0.01,0.2,0.01c0.35,0,0.75-0.06,1.27-0.189l0.1-0.029L50.44,26.83z"/>
			<path fill="#FFFFFF" d="M38.02,15.18h-1.55c-0.38,0-0.78,0.31-0.89,0.68l-0.74,2.63c-0.11,0.37,0.11,0.68,0.5,0.68h1.91
				c1.83,0,2.89-0.86,3-2.43C40.28,16.35,40.36,15.18,38.02,15.18z M41.17,25.34c0.05,0.01,0.36,0.11,0.43,0.42
				c0.03,0.131,0.03,0.32-0.03,0.561c-0.17,0.75-0.84,1.539-2.19,1.539c-1.29,0-2.05-0.659-3-2.619l-1.24-2.54
				c-0.16-0.341-0.52-0.61-0.79-0.61c-0.28,0-0.59,0.311-0.7,0.68l-1.19,4.28c-0.11,0.37-0.5,0.681-0.89,0.681h-2.04
				c-0.39,0-0.61-0.311-0.51-0.681l3.71-13.14c0.24-1.08,1.03-1.72,2.16-1.72h3.54c4.89,0,5.43,2.7,5.32,4.31
				c-0.2,2.74-1.91,4.65-4.59,5.24c-0.38,0.09-0.56,0.39-0.38,0.72l0.76,1.46c0.36,0.721,0.6,1.07,0.89,1.25
				C40.75,25.359,41.13,25.33,41.17,25.34z"/>
			<path fill="#FFFFFF" d="M22.63,11.9c4.17,0,6.89,2.83,6.61,6.87c-0.36,5.08-4.51,9.2-9.25,9.2c-4.24,0-6.9-2.75-6.61-6.84
				C13.73,16.04,17.88,11.9,22.63,11.9z M25.75,18.92c0.16-2.35-1.22-3.87-3.52-3.87c-2.4,0-5.14,2.38-5.39,5.931
				c-0.16,2.35,1.23,3.869,3.54,3.869C22.77,24.85,25.5,22.47,25.75,18.92z"/>
			<path fill="#FFFFFF" d="M7.83,12.6c0.17,0.24,0.32,0.65,0.11,1.31l-2.81,9.97c-0.11,0.38,0.12,0.681,0.5,0.681h4.77
				c1.15,0,1.52,0.649,1.48,1.209c-0.03,0.381-0.23,1.141-0.68,1.551c-0.33,0.359-0.83,0.41-1.31,0.41H1.3
				c-0.39,0-0.61-0.311-0.51-0.681l3.82-13.46c0.1-0.37,0.42-1.49,1.78-1.49H6.7C7.34,12.1,7.67,12.37,7.83,12.6z"/>
		</g>
	</g>
</g>
</svg>
